<?xml version="1.0" encoding="UTF-8"?>
<!DOCTYPE svg PUBLIC "-//W3C//DTD SVG 1.1//EN" "http://www.w3.org/Graphics/SVG/1.1/DTD/svg11.dtd">
<!-- Creator: CorelDRAW 2021 (64-Bit) -->
<svg xmlns="http://www.w3.org/2000/svg" xml:space="preserve" width="35.3626mm" height="31.263mm" version="1.1" style="shape-rendering:geometricPrecision; text-rendering:geometricPrecision; image-rendering:optimizeQuality; fill-rule:evenodd; clip-rule:evenodd"
viewBox="0 0 3536.26 3126.3"
 xmlns:xlink="http://www.w3.org/1999/xlink"
 xmlns:xodm="http://www.corel.com/coreldraw/odm/2003">
 <defs>
  <style type="text/css">
   <![CDATA[
    .str0 {stroke:#FEFEFE;stroke-width:67.73;stroke-linecap:round;stroke-linejoin:round;stroke-miterlimit:22.9256}
    .str1 {stroke:#FEFEFE;stroke-width:42.33;stroke-linecap:round;stroke-linejoin:round;stroke-miterlimit:22.9256}
    .fil0 {fill:none}
    .fil2 {fill:#FEFEFE;fill-rule:nonzero}
    .fil1 {fill:#FFC62D;fill-rule:nonzero}
   ]]>
  </style>
    <mask id="id0">
  <linearGradient id="id1" gradientUnits="userSpaceOnUse" x1="1647.5" y1="456.57" x2="1649.27" y2="896.34">
   <stop offset="0" style="stop-opacity:1; stop-color:white"/>
   <stop offset="1" style="stop-opacity:0; stop-color:white"/>
  </linearGradient>
     <rect style="fill:url(#id1)" x="1068.78" y="-10.61" width="1323.24" height="3173.94"/>
    </mask>
    <mask id="id2">
  <linearGradient id="id3" gradientUnits="userSpaceOnUse" x1="2667.85" y1="276.18" x2="2310.52" y2="913.47">
   <stop offset="0" style="stop-opacity:1; stop-color:white"/>
   <stop offset="1" style="stop-opacity:0; stop-color:white"/>
  </linearGradient>
     <rect style="fill:url(#id3)" x="525.36" y="322.13" width="2463.68" height="2450.36"/>
    </mask>
    <mask id="id4">
  <linearGradient id="id5" gradientUnits="userSpaceOnUse" x1="825.36" y1="492.3" x2="1052.47" y2="1033.53">
   <stop offset="0" style="stop-opacity:1; stop-color:white"/>
   <stop offset="1" style="stop-opacity:0; stop-color:white"/>
  </linearGradient>
     <rect style="fill:url(#id5)" x="522.27" y="315.07" width="2484.8" height="2503.9"/>
    </mask>
    <mask id="id6">
  <linearGradient id="id7" gradientUnits="userSpaceOnUse" x1="2812.86" y1="2448.4" x2="2610.67" y2="1876.09">
   <stop offset="0" style="stop-opacity:1; stop-color:white"/>
   <stop offset="1" style="stop-opacity:0; stop-color:white"/>
  </linearGradient>
     <rect style="fill:url(#id7)" x="455.06" y="31.37" width="2536.1" height="2461.43"/>
    </mask>
    <mask id="id8">
  <linearGradient id="id9" gradientUnits="userSpaceOnUse" x1="786.81" y1="2386.75" x2="920.44" y2="1845.38">
   <stop offset="0" style="stop-opacity:1; stop-color:white"/>
   <stop offset="1" style="stop-opacity:0; stop-color:white"/>
  </linearGradient>
     <rect style="fill:url(#id9)" x="525.23" y="-17.99" width="2375.43" height="2503.9"/>
    </mask>
 </defs>
 <g id="Capa_x0020_1">
  <metadata id="CorelCorpID_0Corel-Layer"/>
  <g id="_1919785875232">
   <path class="fil0 str0" style="mask:url(#id0)" d="M1730.4 23.25c346.7,0 627.76,695.35 627.76,1553.11 0,857.76 -281.06,1553.11 -627.76,1553.11 -346.7,0 -627.76,-695.35 -627.76,-1553.11 0,-857.76 281.06,-1553.11 627.76,-1553.11z"/>
   <path class="fil0 str1" style="mask:url(#id2)" d="M2887.01 407.28c239.76,213.33 -71.71,896.67 -695.68,1526.29 -623.97,629.62 -1324.17,967.1 -1563.94,753.77 -239.76,-213.32 71.71,-896.67 695.68,-1526.29 623.98,-629.62 1324.17,-967.09 1563.94,-753.77z"/>
   <path class="fil0 str1" style="mask:url(#id4)" d="M639.52 394.3c261.79,-205.72 977.76,152.56 1599.16,800.24 621.4,647.67 912.93,1339.48 651.14,1545.2 -261.79,205.72 -977.76,-152.56 -1599.16,-800.24 -621.4,-647.67 -912.93,-1339.48 -651.14,-1545.2z"/>
   <path class="fil0 str1" style="mask:url(#id6)" d="M2880.25 2409.02c256.03,-211.56 -54.48,-896.57 -693.55,-1530.01 -639.07,-633.44 -1364.7,-975.43 -1620.73,-763.87 -256.04,211.57 54.48,896.58 693.55,1530.02 639.07,633.44 1364.69,975.43 1620.73,763.86z"/>
   <path class="fil0 str1" style="mask:url(#id8)" d="M638.18 2406.68c250.06,205.72 933.97,-152.56 1527.55,-800.24 593.57,-647.67 872.04,-1339.49 621.98,-1545.2 -250.07,-205.72 -933.98,152.56 -1527.55,800.23 -593.57,647.68 -872.05,1339.49 -621.98,1545.21z"/>
   <g>
    <path class="fil1" d="M1418.19 1383.39l0 144.83 43.4 0c20.17,0 37.17,-7.02 51.31,-21.15 14.04,-14.04 21.16,-31.14 21.16,-51.21 0,-20.07 -7.12,-37.17 -21.16,-51.31 -14.14,-14.04 -31.14,-21.16 -51.31,-21.16l-43.4 0zm-86.89 -86.9l130.29 0c44.1,0 81.66,15.62 112.7,46.67 31.05,31.14 46.67,68.61 46.67,112.7 0,43.99 -15.62,81.56 -46.67,112.6 -31.04,31.14 -68.6,46.66 -112.7,46.66l-43.4 0 0 144.83 -86.89 0 0 -463.46zm341.17 0l86.89 0 0 376.56 115.87 0 0 86.9 -202.76 0 0 -463.46zm352.82 405.53l-24.61 57.93 -94.41 0 215.12 -506.56 214.92 506.56 -94.41 0 -24.62 -57.93 -191.99 0zm155.21 -86.9l-59.11 -139.59 -59.32 139.59 118.43 0zm274.04 -195.74l0 340.57 -86.89 0 0 -463.46 86.89 0 115.87 115.87 0 -115.87 86.9 0 0 463.46 -86.9 0 0 -224.71 -115.87 -115.86zm627.37 162.72l80.77 32.43c-11.37,28.37 -28.67,54.17 -51.81,77.31 -45.37,45.37 -100.04,68.11 -163.91,68.11 -63.96,0 -118.53,-22.64 -163.81,-67.92 -45.28,-45.27 -67.91,-99.85 -67.91,-163.81 0,-63.86 22.63,-118.53 67.91,-163.81 45.28,-45.28 99.85,-67.92 163.81,-67.92 63.87,0 118.54,22.64 163.91,67.82 23.14,23.33 40.44,49.23 51.81,77.61l-80.77 32.42c-7.12,-17.69 -17.99,-33.91 -32.43,-48.64 -28.37,-28.17 -62.58,-42.31 -102.52,-42.31 -40.03,0 -74.14,14.14 -102.42,42.51 -28.27,28.28 -42.41,62.38 -42.41,102.32 0,40.04 14.14,74.15 42.41,102.42 28.28,28.28 62.39,42.41 102.42,42.41 39.94,0 74.15,-14.13 102.52,-42.61 14.44,-14.43 25.31,-30.54 32.43,-48.34zm212.54 26.4l0 151.45 -86.89 0 0 -463.46 86.89 0 0 137.62 79.39 -137.62 100.14 0 -103.11 179.34 164.01 284.12 -100.24 0 -113.79 -196.93 -26.4 45.48z"/>
    <path class="fil2" d="M84.92 1441.71l0 318.23 -86.33 0 0 -460.46 86.33 0 86.34 115.12 86.33 -115.12 86.34 0 0 460.46 -86.34 0 0 -318.23 -86.33 115.11 -86.34 -115.11zm408.11 260.67l-24.46 57.56 -93.8 0 213.73 -503.28 213.53 503.28 -93.8 0 -24.46 -57.56 -190.74 0zm154.2 -86.33l-58.73 -138.69 -58.93 138.69 117.66 0zm329.83 -209.21l54.71 -107.36 96.65 0 -103.04 202.04 131.82 258.42 -96.75 0 -83.39 -163.73 -83.49 163.73 -96.64 0 131.81 -258.42 -103.04 -202.04 96.65 0 54.71 107.36z"/>
    <path class="fil2" d="M1181.57 1164.23l19.7 14.59c-8.99,17.09 -21.4,30.28 -37.09,39.46 -15.62,9.19 -33.44,13.81 -53.45,13.81 -29.43,0 -53.75,-9.73 -72.96,-29.13 -19.16,-19.4 -28.77,-44.02 -28.77,-73.88 0,-29.92 9.61,-54.6 28.83,-74 19.27,-19.4 43.53,-29.13 72.84,-29.13 18.18,0 34.78,3.96 49.74,11.92 14.96,7.97 27.12,19.34 36.49,34.05l-20.5 14.6c-6.14,-11.74 -15.08,-20.98 -26.69,-27.61 -11.61,-6.63 -24.63,-9.97 -38.98,-9.97 -22.07,0 -40.37,7.6 -54.84,22.74 -14.48,15.14 -21.71,34.29 -21.71,57.4 0,23.17 7.23,42.32 21.71,57.4 14.47,15.08 32.77,22.62 54.84,22.62 15.45,0 29.13,-3.83 41.11,-11.43 11.98,-7.6 21.89,-18.73 29.73,-33.44zm82.82 -133.9l0 127.33c0,20.37 3.83,34.05 11.49,41.04 7.66,6.94 22.68,10.4 45.18,10.4 22.44,0 37.46,-3.46 45.06,-10.4 7.6,-6.99 11.37,-20.67 11.37,-41.04l0 -127.33 24.44 0 0 133.9c0,24.2 -6.26,41.59 -18.85,52.11 -12.58,10.52 -33.32,15.75 -62.14,15.75 -28.82,0 -49.56,-5.23 -62.15,-15.75 -12.58,-10.52 -18.85,-27.91 -18.85,-52.11l0 -133.9 24.45 0zm215.31 87.56l86.83 0c12.35,0 21.71,-2.73 28.04,-8.21 6.38,-5.41 9.54,-13.43 9.54,-24.01 0,-10.28 -3.16,-18.37 -9.54,-24.08 -6.33,-5.78 -15.27,-8.64 -26.82,-8.64l-88.05 0 0 64.94zm-24.44 109.09l0 -196.65 112.85 0c19.22,0 34.24,4.87 45.18,14.53 10.89,9.67 16.36,23.05 16.36,40.14 0,14.23 -4.26,26.39 -12.77,36.54 -8.57,10.16 -19.82,16.48 -33.81,18.97l49.13 86.47 -26.99 0 -49.2 -86.1 -76.31 0 0 86.1 -24.44 0zm200.23 -29.61l14.23 -21.1c13.93,10.76 28.4,18.97 43.42,24.68 15.02,5.66 29.92,8.52 44.63,8.52 18.18,0 32.96,-3.83 44.27,-11.56 11.37,-7.72 17.02,-17.63 17.02,-29.73 0,-9.61 -4.07,-17.51 -12.22,-23.71 -8.15,-6.21 -19.4,-9.92 -33.75,-11.13 -3.46,-0.37 -8.45,-0.73 -14.95,-1.04 -32.35,-2.31 -54.37,-6.08 -66.16,-11.43 -9.12,-4.44 -16.12,-10.09 -20.86,-17.02 -4.74,-7 -7.11,-14.78 -7.11,-23.47 0,-15.81 7.05,-28.83 21.22,-39.1 14.11,-10.22 32.47,-15.33 55.03,-15.33 16.42,0 32.59,2.68 48.58,8.09 15.99,5.41 31.2,13.44 45.55,24.02l-14.23 20.43c-12.16,-9.79 -24.87,-17.15 -38.25,-22.13 -13.38,-4.93 -27.12,-7.42 -41.23,-7.42 -14.83,0 -27.06,2.92 -36.72,8.69 -9.61,5.78 -14.41,13.02 -14.41,21.71 0,3.41 0.79,6.57 2.31,9.43 1.52,2.85 3.95,5.59 7.11,8.08 8.09,6.02 25.54,9.92 52.42,11.56 12.34,0.73 21.95,1.46 28.7,2.31 19.94,2.25 35.75,8.63 47.43,19.21 11.61,10.58 17.45,23.53 17.45,38.98 0,18.36 -7.97,33.5 -23.96,45.36 -15.99,11.86 -36.97,17.82 -62.87,17.82 -19.58,0 -37.83,-2.86 -54.61,-8.52 -16.84,-5.71 -32.83,-14.41 -48.04,-26.2zm236.97 29.61l0 -197.74 24.81 0 0 197.74 -24.81 0zm83.91 0l0 -196.65 24.45 0 0 174.03 128.42 0 0 22.62 -152.87 0zm182.42 0l0 -196.65 24.45 0 0 174.03 128.42 0 0 22.62 -152.87 0zm262.14 -17.88c22.08,0 40.38,-7.54 54.91,-22.62 14.47,-15.08 21.71,-34.23 21.71,-57.4 0,-23.23 -7.24,-42.44 -21.65,-57.52 -14.41,-15.08 -32.77,-22.62 -54.97,-22.62 -22.07,0 -40.37,7.6 -54.9,22.74 -14.48,15.14 -21.71,34.29 -21.71,57.4 0,23.17 7.23,42.32 21.71,57.4 14.53,15.08 32.83,22.62 54.9,22.62zm-0.06 22.99c-29.49,0 -53.81,-9.73 -72.96,-29.13 -19.16,-19.4 -28.77,-44.02 -28.77,-73.88 0,-29.92 9.61,-54.6 28.89,-74 19.21,-19.4 43.47,-29.13 72.84,-29.13 29.43,0 53.82,9.73 73.21,29.25 19.34,19.46 29.01,44.09 29.01,73.88 0,29.86 -9.67,54.48 -28.94,73.88 -19.28,19.4 -43.72,29.13 -73.28,29.13z"/>
   </g>
  </g>
 </g>
</svg>
