<svg width="72" height="66" viewBox="0 0 72 66" fill="none" xmlns="http://www.w3.org/2000/svg">
<path d="M59.0764 51.4198L57.3289 53.3315C56.6589 54.0645 57.2692 55.7131 58.6921 57.0138L62.1208 60.1479C63.5436 61.4486 65.2403 61.9087 65.9103 61.1757L67.6578 59.264C68.3279 58.531 67.7175 56.8824 66.2946 55.5817L62.866 52.4476C61.4431 51.1469 59.7464 50.6868 59.0764 51.4198Z" fill="#2E89FF"/>
<path fill-rule="evenodd" clip-rule="evenodd" d="M35.7402 0.419434C55.3968 0.419434 71.3317 14.9336 71.3317 32.8376C71.3317 50.7416 55.3968 65.2557 35.7402 65.2557C16.0837 65.2557 0.148438 50.7416 0.148438 32.8376C0.148438 14.9336 16.0837 0.419434 35.7402 0.419434Z" fill="#2E89FF"/>
<mask id="mask0_1005_181" style="mask-type:luminance" maskUnits="userSpaceOnUse" x="0" y="0" width="72" height="66">
<path d="M35.7402 0.419434C55.3968 0.419434 71.3317 14.9336 71.3317 32.8376C71.3317 50.7416 55.3968 65.2557 35.7402 65.2557C16.0837 65.2557 0.148438 50.7416 0.148438 32.8376C0.148438 14.9336 16.0837 0.419434 35.7402 0.419434Z" fill="white"/>
</mask>
<g mask="url(#mask0_1005_181)">
<path d="M26.8963 65.2557C48.1452 65.2557 65.3708 50.7416 65.3708 32.8376C65.3708 14.9335 48.1452 0.419434 26.8963 0.419434C5.64747 0.419434 -11.5781 14.9335 -11.5781 32.8376C-11.5781 50.7416 5.64747 65.2557 26.8963 65.2557Z" fill="white"/>
<path fill-rule="evenodd" clip-rule="evenodd" d="M33.9591 3.42676C50.917 3.42676 64.6647 16.5943 64.6647 32.8375C64.6647 49.0808 50.917 62.2483 33.9591 62.2483C17.0007 62.2483 3.25342 49.0808 3.25342 32.8375C3.25342 16.5943 17.0007 3.42676 33.9591 3.42676Z" fill="#ED1B23"/>
<mask id="mask1_1005_181" style="mask-type:luminance" maskUnits="userSpaceOnUse" x="3" y="3" width="62" height="60">
<path d="M33.9591 3.42676C50.917 3.42676 64.6647 16.5943 64.6647 32.8375C64.6647 49.0808 50.917 62.2483 33.9591 62.2483C17.0007 62.2483 3.25342 49.0808 3.25342 32.8375C3.25342 16.5943 17.0007 3.42676 33.9591 3.42676Z" fill="white"/>
</mask>
<g mask="url(#mask1_1005_181)">
<path d="M37.2834 62.8517C53.0756 62.8517 65.8777 49.414 65.8777 32.8377C65.8777 16.2614 53.0756 2.82373 37.2834 2.82373C21.4911 2.82373 8.68896 16.2614 8.68896 32.8377C8.68896 49.414 21.4911 62.8517 37.2834 62.8517Z" fill="white"/>
</g>
</g>
<path fill-rule="evenodd" clip-rule="evenodd" d="M17.3701 25.1208L37.0456 18.1514L56.5873 25.1945L36.9326 31.941L17.3701 25.1208Z" fill="#ED3237"/>
<path fill-rule="evenodd" clip-rule="evenodd" d="M24.6996 32.3986L22.5049 41.0654C22.5049 41.0654 25.1936 42.3754 29.5511 44.8344C33.9088 47.2933 36.9351 49.9999 36.9351 49.9999C36.9351 49.9999 41.8164 46.0389 44.0882 44.899C46.3605 43.7591 51.4848 41.1301 51.4848 41.1301L49.1857 32.3105L36.9359 35.9665L24.6996 32.3986Z" fill="#2E89FF"/>
</svg>
