<svg width="72" height="66" viewBox="0 0 72 66" fill="none" xmlns="http://www.w3.org/2000/svg">
<path d="M59.0766 51.4198L57.3292 53.3315C56.6591 54.0645 57.2695 55.7131 58.6924 57.0138L62.121 60.1479C63.5439 61.4486 65.2406 61.9087 65.9106 61.1757L67.6581 59.264C68.3281 58.531 67.7178 56.8824 66.2949 55.5817L62.8662 52.4476C61.4433 51.1469 59.7467 50.6868 59.0766 51.4198Z" fill="#2E89FF"/>
<path fill-rule="evenodd" clip-rule="evenodd" d="M35.7405 0.418945C55.397 0.418945 71.3319 14.9331 71.3319 32.8371C71.3319 50.7411 55.397 65.2552 35.7405 65.2552C16.0839 65.2552 0.148682 50.7411 0.148682 32.8371C0.148682 14.9331 16.0839 0.418945 35.7405 0.418945Z" fill="#2E89FF"/>
<mask id="mask0_1007_1986" style="mask-type:luminance" maskUnits="userSpaceOnUse" x="0" y="0" width="72" height="66">
<path d="M35.7405 0.418945C55.397 0.418945 71.3319 14.9331 71.3319 32.8371C71.3319 50.7411 55.397 65.2552 35.7405 65.2552C16.0839 65.2552 0.148682 50.7411 0.148682 32.8371C0.148682 14.9331 16.0839 0.418945 35.7405 0.418945Z" fill="white"/>
</mask>
<g mask="url(#mask0_1007_1986)">
<path d="M26.8963 65.2552C48.1452 65.2552 65.3708 50.7411 65.3708 32.8371C65.3708 14.933 48.1452 0.418945 26.8963 0.418945C5.64747 0.418945 -11.5781 14.933 -11.5781 32.8371C-11.5781 50.7411 5.64747 65.2552 26.8963 65.2552Z" fill="black"/>
<path fill-rule="evenodd" clip-rule="evenodd" d="M33.9587 3.42603C50.917 3.42603 64.6647 16.5939 64.6647 32.8372C64.6647 49.0804 50.917 62.2479 33.9587 62.2479C17.0007 62.2479 3.25342 49.0804 3.25342 32.8372C3.25342 16.5939 17.0007 3.42603 33.9587 3.42603Z" fill="#ED1B23"/>
<mask id="mask1_1007_1986" style="mask-type:luminance" maskUnits="userSpaceOnUse" x="3" y="3" width="62" height="60">
<path d="M33.9587 3.42603C50.917 3.42603 64.6647 16.5939 64.6647 32.8372C64.6647 49.0804 50.917 62.2479 33.9587 62.2479C17.0007 62.2479 3.25342 49.0804 3.25342 32.8372C3.25342 16.5939 17.0007 3.42603 33.9587 3.42603Z" fill="white"/>
</mask>
<g mask="url(#mask1_1007_1986)">
<path d="M37.2836 62.8512C53.0758 62.8512 65.878 49.4135 65.878 32.8372C65.878 16.261 53.0758 2.82324 37.2836 2.82324C21.4913 2.82324 8.68921 16.261 8.68921 32.8372C8.68921 49.4135 21.4913 62.8512 37.2836 62.8512Z" fill="black"/>
</g>
</g>
<path fill-rule="evenodd" clip-rule="evenodd" d="M17.3701 25.1206L37.0456 18.1511L56.5873 25.1943L36.9326 31.9407L17.3701 25.1206Z" fill="#ED3237"/>
<path fill-rule="evenodd" clip-rule="evenodd" d="M24.6996 32.3984L22.5049 41.0652C22.5049 41.0652 25.1936 42.3752 29.5511 44.8341C33.9088 47.2931 36.9351 49.9996 36.9351 49.9996C36.9351 49.9996 41.8164 46.0387 44.0882 44.8988C46.3605 43.7589 51.4848 41.1298 51.4848 41.1298L49.1857 32.3103L36.9359 35.9662L24.6996 32.3984Z" fill="#2E89FF"/>
</svg>
