<svg width="364" height="87" viewBox="0 0 364 87" fill="none" xmlns="http://www.w3.org/2000/svg">
<path d="M59.0766 56.4198L57.3292 58.3315C56.6591 59.0645 57.2695 60.7131 58.6924 62.0138L62.121 65.1479C63.5439 66.4486 65.2406 66.9087 65.9106 66.1757L67.6581 64.264C68.3281 63.531 67.7178 61.8824 66.2949 60.5817L62.8662 57.4476C61.4433 56.1469 59.7467 55.6868 59.0766 56.4198Z" fill="#2E89FF"/>
<path fill-rule="evenodd" clip-rule="evenodd" d="M35.7405 5.41895C55.397 5.41895 71.3319 19.9331 71.3319 37.8371C71.3319 55.7411 55.397 70.2552 35.7405 70.2552C16.0839 70.2552 0.148682 55.7411 0.148682 37.8371C0.148682 19.9331 16.0839 5.41895 35.7405 5.41895Z" fill="#2E89FF"/>
<mask id="mask0_1007_1986" style="mask-type:luminance" maskUnits="userSpaceOnUse" x="0" y="5" width="72" height="66">
<path d="M35.7405 5.41895C55.397 5.41895 71.3319 19.9331 71.3319 37.8371C71.3319 55.7411 55.397 70.2552 35.7405 70.2552C16.0839 70.2552 0.148682 55.7411 0.148682 37.8371C0.148682 19.9331 16.0839 5.41895 35.7405 5.41895Z" fill="white"/>
</mask>
<g mask="url(#mask0_1007_1986)">
<path d="M26.8963 70.2552C48.1452 70.2552 65.3708 55.7411 65.3708 37.8371C65.3708 19.933 48.1452 5.41895 26.8963 5.41895C5.64747 5.41895 -11.5781 19.933 -11.5781 37.8371C-11.5781 55.7411 5.64747 70.2552 26.8963 70.2552Z" fill="black"/>
<path fill-rule="evenodd" clip-rule="evenodd" d="M33.9587 8.42603C50.917 8.42603 64.6647 21.5939 64.6647 37.8372C64.6647 54.0804 50.917 67.2479 33.9587 67.2479C17.0007 67.2479 3.25342 54.0804 3.25342 37.8372C3.25342 21.5939 17.0007 8.42603 33.9587 8.42603Z" fill="#ED1B23"/>
<mask id="mask1_1007_1986" style="mask-type:luminance" maskUnits="userSpaceOnUse" x="3" y="8" width="62" height="60">
<path d="M33.9587 8.42603C50.917 8.42603 64.6647 21.5939 64.6647 37.8372C64.6647 54.0804 50.917 67.2479 33.9587 67.2479C17.0007 67.2479 3.25342 54.0804 3.25342 37.8372C3.25342 21.5939 17.0007 8.42603 33.9587 8.42603Z" fill="white"/>
</mask>
<g mask="url(#mask1_1007_1986)">
<path d="M37.2836 67.8512C53.0758 67.8512 65.878 54.4135 65.878 37.8372C65.878 21.261 53.0758 7.82324 37.2836 7.82324C21.4913 7.82324 8.68921 21.261 8.68921 37.8372C8.68921 54.4135 21.4913 67.8512 37.2836 67.8512Z" fill="black"/>
</g>
</g>
<path fill-rule="evenodd" clip-rule="evenodd" d="M17.3701 30.1206L37.0456 23.1511L56.5873 30.1943L36.9326 36.9407L17.3701 30.1206Z" fill="#ED3237"/>
<path fill-rule="evenodd" clip-rule="evenodd" d="M24.6996 37.3984L22.5049 46.0652C22.5049 46.0652 25.1936 47.3752 29.5511 49.8341C33.9088 52.2931 36.9351 54.9996 36.9351 54.9996C36.9351 54.9996 41.8164 51.0387 44.0882 49.8988C46.3605 48.7589 51.4848 46.1298 51.4848 46.1298L49.1857 37.3103L36.9359 40.9662L24.6996 37.3984Z" fill="#2E89FF"/>
<path d="M109.35 55.056H91.9395L88.7323 63.9331H83.2342L97.6666 24.2439H103.68L118.055 63.9331H112.557L109.35 55.056ZM107.861 50.8179L100.645 30.6583L93.4285 50.8179H107.861ZM129.557 37.6455C130.473 35.8509 131.772 34.4573 133.452 33.4646C135.17 32.4719 137.251 31.9756 139.694 31.9756V37.3591H138.32C132.478 37.3591 129.557 40.5281 129.557 46.8662V63.9331H124.345V32.5483H129.557V37.6455ZM143.763 48.1262C143.763 44.9189 144.412 42.1126 145.71 39.7072C147.008 37.2636 148.784 35.3737 151.037 34.0373C153.327 32.701 155.866 32.0328 158.654 32.0328C161.403 32.0328 163.789 32.6247 165.813 33.8083C167.836 34.9919 169.344 36.4809 170.337 38.2754V32.5483H175.606V63.9331H170.337V58.0914C169.306 59.9241 167.76 61.4513 165.698 62.6731C163.674 63.8567 161.307 64.4485 158.596 64.4485C155.809 64.4485 153.289 63.7613 151.037 62.3868C148.784 61.0123 147.008 59.0841 145.71 56.6023C144.412 54.1206 143.763 51.2952 143.763 48.1262ZM170.337 48.1834C170.337 45.8162 169.86 43.7544 168.905 41.9981C167.951 40.2418 166.653 38.9054 165.011 37.9891C163.407 37.0346 161.632 36.5573 159.685 36.5573C157.737 36.5573 155.962 37.0155 154.358 37.9318C152.755 38.8482 151.476 40.1845 150.521 41.9408C149.567 43.6972 149.089 45.7589 149.089 48.1262C149.089 50.5316 149.567 52.6315 150.521 54.426C151.476 56.1824 152.755 57.5378 154.358 58.4923C155.962 59.4087 157.737 59.8668 159.685 59.8668C161.632 59.8668 163.407 59.4087 165.011 58.4923C166.653 57.5378 167.951 56.1824 168.905 54.426C169.86 52.6315 170.337 50.5507 170.337 48.1834ZM199.705 31.9756C203.523 31.9756 206.616 33.1401 208.983 35.4691C211.35 37.76 212.534 41.0818 212.534 45.4344V63.9331H207.379V46.1789C207.379 43.0481 206.597 40.6618 205.031 39.02C203.466 37.34 201.328 36.5 198.617 36.5C195.868 36.5 193.672 37.3591 192.03 39.0772C190.427 40.7954 189.625 43.2963 189.625 46.5798V63.9331H184.413V32.5483H189.625V37.0155C190.656 35.4119 192.05 34.171 193.806 33.2928C195.6 32.4147 197.567 31.9756 199.705 31.9756ZM219.1 48.1262C219.1 44.9189 219.749 42.1126 221.047 39.7072C222.345 37.2636 224.121 35.3737 226.373 34.0373C228.664 32.701 231.222 32.0328 234.048 32.0328C236.491 32.0328 238.763 32.6056 240.863 33.751C242.963 34.8582 244.567 36.3282 245.674 38.1609V21.5522H250.943V63.9331H245.674V58.0341C244.643 59.905 243.116 61.4513 241.092 62.6731C239.068 63.8567 236.701 64.4485 233.99 64.4485C231.203 64.4485 228.664 63.7613 226.373 62.3868C224.121 61.0123 222.345 59.0841 221.047 56.6023C219.749 54.1206 219.1 51.2952 219.1 48.1262ZM245.674 48.1834C245.674 45.8162 245.197 43.7544 244.242 41.9981C243.287 40.2418 241.989 38.9054 240.348 37.9891C238.744 37.0346 236.969 36.5573 235.021 36.5573C233.074 36.5573 231.299 37.0155 229.695 37.9318C228.091 38.8482 226.812 40.1845 225.858 41.9408C224.903 43.6972 224.426 45.7589 224.426 48.1262C224.426 50.5316 224.903 52.6315 225.858 54.426C226.812 56.1824 228.091 57.5378 229.695 58.4923C231.299 59.4087 233.074 59.8668 235.021 59.8668C236.969 59.8668 238.744 59.4087 240.348 58.4923C241.989 57.5378 243.287 56.1824 244.242 54.426C245.197 52.6315 245.674 50.5507 245.674 48.1834ZM287.584 32.5483V63.9331H282.372V59.2941C281.38 60.8977 279.986 62.1577 278.192 63.074C276.435 63.9522 274.488 64.3913 272.35 64.3913C269.906 64.3913 267.711 63.8949 265.764 62.9022C263.816 61.8713 262.27 60.3441 261.125 58.3205C260.017 56.2969 259.464 53.8342 259.464 50.9325V32.5483H264.618V50.2452C264.618 53.3379 265.401 55.7242 266.966 57.4041C268.532 59.0459 270.67 59.8668 273.381 59.8668C276.168 59.8668 278.363 59.0078 279.967 57.2896C281.571 55.5715 282.372 53.0706 282.372 49.787V32.5483H287.584Z" fill="white"/>
<path d="M301.875 38.3327C302.906 36.5382 304.433 35.0491 306.457 33.8655C308.519 32.6437 310.905 32.0328 313.616 32.0328C316.403 32.0328 318.923 32.701 321.176 34.0373C323.467 35.3737 325.261 37.2636 326.559 39.7072C327.857 42.1126 328.507 44.9189 328.507 48.1262C328.507 51.2952 327.857 54.1206 326.559 56.6023C325.261 59.0841 323.467 61.0123 321.176 62.3868C318.923 63.7613 316.403 64.4485 313.616 64.4485C310.943 64.4485 308.576 63.8567 306.514 62.6731C304.491 61.4513 302.944 59.9432 301.875 58.1487V78.8237H296.664V32.5483H301.875V38.3327ZM323.18 48.1262C323.18 45.7589 322.703 43.6972 321.749 41.9408C320.794 40.1845 319.496 38.8482 317.854 37.9318C316.25 37.0155 314.475 36.5573 312.528 36.5573C310.619 36.5573 308.843 37.0346 307.202 37.9891C305.598 38.9054 304.3 40.2609 303.307 42.0554C302.353 43.8117 301.875 45.8544 301.875 48.1834C301.875 50.5507 302.353 52.6315 303.307 54.426C304.3 56.1824 305.598 57.5378 307.202 58.4923C308.843 59.4087 310.619 59.8668 312.528 59.8668C314.475 59.8668 316.25 59.4087 317.854 58.4923C319.496 57.5378 320.794 56.1824 321.749 54.426C322.703 52.6315 323.18 50.5316 323.18 48.1262ZM362.399 32.5483L343.499 78.7092H338.116L344.301 63.5895L331.644 32.5483H337.428L347.279 57.9769L357.015 32.5483H362.399Z" fill="white"/>
</svg>
