<svg width="366" height="88" viewBox="0 0 366 88" fill="none" xmlns="http://www.w3.org/2000/svg">
<path d="M59.0764 57.4198L57.3289 59.3315C56.6589 60.0645 57.2692 61.7131 58.6921 63.0138L62.1208 66.1479C63.5436 67.4486 65.2403 67.9087 65.9103 67.1757L67.6578 65.264C68.3279 64.531 67.7175 62.8824 66.2946 61.5817L62.866 58.4476C61.4431 57.1469 59.7464 56.6868 59.0764 57.4198Z" fill="#2E89FF"/>
<path fill-rule="evenodd" clip-rule="evenodd" d="M35.7402 6.41943C55.3968 6.41943 71.3317 20.9336 71.3317 38.8376C71.3317 56.7416 55.3968 71.2557 35.7402 71.2557C16.0837 71.2557 0.148438 56.7416 0.148438 38.8376C0.148438 20.9336 16.0837 6.41943 35.7402 6.41943Z" fill="#2E89FF"/>
<mask id="mask0_1005_181" style="mask-type:luminance" maskUnits="userSpaceOnUse" x="0" y="6" width="72" height="66">
<path d="M35.7402 6.41943C55.3968 6.41943 71.3317 20.9336 71.3317 38.8376C71.3317 56.7416 55.3968 71.2557 35.7402 71.2557C16.0837 71.2557 0.148438 56.7416 0.148438 38.8376C0.148438 20.9336 16.0837 6.41943 35.7402 6.41943Z" fill="white"/>
</mask>
<g mask="url(#mask0_1005_181)">
<path d="M26.8963 71.2557C48.1452 71.2557 65.3708 56.7416 65.3708 38.8376C65.3708 20.9335 48.1452 6.41943 26.8963 6.41943C5.64747 6.41943 -11.5781 20.9335 -11.5781 38.8376C-11.5781 56.7416 5.64747 71.2557 26.8963 71.2557Z" fill="white"/>
<path fill-rule="evenodd" clip-rule="evenodd" d="M33.9591 9.42676C50.917 9.42676 64.6647 22.5943 64.6647 38.8375C64.6647 55.0808 50.917 68.2483 33.9591 68.2483C17.0007 68.2483 3.25342 55.0808 3.25342 38.8375C3.25342 22.5943 17.0007 9.42676 33.9591 9.42676Z" fill="#ED1B23"/>
<mask id="mask1_1005_181" style="mask-type:luminance" maskUnits="userSpaceOnUse" x="3" y="9" width="62" height="60">
<path d="M33.9591 9.42676C50.917 9.42676 64.6647 22.5943 64.6647 38.8375C64.6647 55.0808 50.917 68.2483 33.9591 68.2483C17.0007 68.2483 3.25342 55.0808 3.25342 38.8375C3.25342 22.5943 17.0007 9.42676 33.9591 9.42676Z" fill="white"/>
</mask>
<g mask="url(#mask1_1005_181)">
<path d="M37.2834 68.8517C53.0756 68.8517 65.8777 55.414 65.8777 38.8377C65.8777 22.2614 53.0756 8.82373 37.2834 8.82373C21.4911 8.82373 8.68896 22.2614 8.68896 38.8377C8.68896 55.414 21.4911 68.8517 37.2834 68.8517Z" fill="white"/>
</g>
</g>
<path fill-rule="evenodd" clip-rule="evenodd" d="M17.3701 31.1208L37.0456 24.1514L56.5873 31.1945L36.9326 37.941L17.3701 31.1208Z" fill="#ED3237"/>
<path fill-rule="evenodd" clip-rule="evenodd" d="M24.6996 38.3986L22.5049 47.0654C22.5049 47.0654 25.1936 48.3754 29.5511 50.8344C33.9088 53.2933 36.9351 55.9999 36.9351 55.9999C36.9351 55.9999 41.8164 52.0389 44.0882 50.899C46.3605 49.7591 51.4848 47.1301 51.4848 47.1301L49.1857 38.3105L36.9359 41.9665L24.6996 38.3986Z" fill="#2E89FF"/>
<path d="M109.636 56.8005H92.9704L90.1068 64.9331H83.2915L97.5521 25.0721H105.112L119.373 64.9331H112.5L109.636 56.8005ZM107.804 51.4743L101.332 32.9756L94.8031 51.4743H107.804ZM132.102 37.9582C133.057 36.3546 134.317 35.1137 135.882 34.2355C137.486 33.3192 139.376 32.861 141.552 32.861V39.6191H139.891C137.333 39.6191 135.386 40.2682 134.049 41.5663C132.751 42.8645 132.102 45.1171 132.102 48.3244V64.9331H125.573V33.3765H132.102V37.9582ZM145.377 49.0116C145.377 45.8426 146.026 43.0363 147.324 40.5927C148.661 38.1491 150.455 36.2591 152.708 34.9228C154.999 33.5483 157.519 32.861 160.268 32.861C162.749 32.861 164.907 33.3574 166.739 34.3501C168.61 35.3046 170.099 36.5073 171.206 37.9582V33.3765H177.793V64.9331H171.206V60.2368C170.099 61.7259 168.591 62.9668 166.682 63.9595C164.773 64.9522 162.597 65.4485 160.153 65.4485C157.442 65.4485 154.96 64.7613 152.708 63.3868C150.455 61.9741 148.661 60.0268 147.324 57.5451C146.026 55.0251 145.377 52.1806 145.377 49.0116ZM171.206 49.1262C171.206 46.9498 170.748 45.0599 169.832 43.4563C168.954 41.8527 167.789 40.6309 166.338 39.7909C164.887 38.9509 163.322 38.5309 161.642 38.5309C159.962 38.5309 158.397 38.9509 156.946 39.7909C155.495 40.5927 154.311 41.7954 153.395 43.399C152.517 44.9644 152.078 46.8353 152.078 49.0116C152.078 51.1879 152.517 53.097 153.395 54.7388C154.311 56.3806 155.495 57.6405 156.946 58.5187C158.435 59.3587 160 59.7787 161.642 59.7787C163.322 59.7787 164.887 59.3587 166.338 58.5187C167.789 57.6787 168.954 56.4569 169.832 54.8533C170.748 53.2115 171.206 51.3025 171.206 49.1262ZM202.29 32.861C204.771 32.861 206.986 33.3765 208.933 34.4074C210.919 35.4382 212.465 36.9655 213.572 38.9891C214.679 41.0127 215.233 43.4563 215.233 46.3198V64.9331H208.761V47.2935C208.761 44.4681 208.055 42.3108 206.642 40.8218C205.23 39.2945 203.301 38.5309 200.858 38.5309C198.414 38.5309 196.467 39.2945 195.016 40.8218C193.604 42.3108 192.897 44.4681 192.897 47.2935V64.9331H186.368V33.3765H192.897V36.9846C193.966 35.6864 195.322 34.6746 196.963 33.9492C198.643 33.2238 200.419 32.861 202.29 32.861ZM221.385 49.0116C221.385 45.8426 222.034 43.0363 223.332 40.5927C224.668 38.1491 226.463 36.2591 228.716 34.9228C231.006 33.5483 233.546 32.861 236.333 32.861C238.394 32.861 240.418 33.3192 242.404 34.2355C244.427 35.1137 246.031 36.2973 247.214 37.7864V22.5522H253.801V64.9331H247.214V60.1796C246.145 61.7068 244.656 62.9668 242.747 63.9595C240.876 64.9522 238.719 65.4485 236.275 65.4485C233.526 65.4485 231.006 64.7613 228.716 63.3868C226.463 61.9741 224.668 60.0268 223.332 57.5451C222.034 55.0251 221.385 52.1806 221.385 49.0116ZM247.214 49.1262C247.214 46.9498 246.756 45.0599 245.84 43.4563C244.962 41.8527 243.797 40.6309 242.346 39.7909C240.895 38.9509 239.33 38.5309 237.65 38.5309C235.97 38.5309 234.405 38.9509 232.954 39.7909C231.503 40.5927 230.319 41.7954 229.403 43.399C228.525 44.9644 228.086 46.8353 228.086 49.0116C228.086 51.1879 228.525 53.097 229.403 54.7388C230.319 56.3806 231.503 57.6405 232.954 58.5187C234.443 59.3587 236.008 59.7787 237.65 59.7787C239.33 59.7787 240.895 59.3587 242.346 58.5187C243.797 57.6787 244.962 56.4569 245.84 54.8533C246.756 53.2115 247.214 51.3025 247.214 49.1262ZM290.955 33.3765V64.9331H284.426V61.2105C283.395 62.5086 282.039 63.5395 280.359 64.3031C278.718 65.0286 276.961 65.3913 275.09 65.3913C272.609 65.3913 270.375 64.8758 268.39 63.8449C266.442 62.8141 264.896 61.2868 263.751 59.2632C262.643 57.2396 262.09 54.796 262.09 51.9325V33.3765H268.561V50.9588C268.561 53.7842 269.268 55.9606 270.68 57.4878C272.093 58.9769 274.021 59.7214 276.465 59.7214C278.908 59.7214 280.837 58.9769 282.249 57.4878C283.7 55.9606 284.426 53.7842 284.426 50.9588V33.3765H290.955Z" fill="#2C2A2E"/>
<path d="M303.078 37.0155C304.185 35.5646 305.694 34.3428 307.603 33.3501C309.512 32.3574 311.669 31.861 314.074 31.861C316.823 31.861 319.324 32.5483 321.577 33.9228C323.868 35.2591 325.662 37.1491 326.96 39.5927C328.259 42.0363 328.908 44.8426 328.908 48.0116C328.908 51.1806 328.259 54.0251 326.96 56.5451C325.662 59.0268 323.868 60.9741 321.577 62.3868C319.324 63.7613 316.823 64.4485 314.074 64.4485C311.669 64.4485 309.531 63.9713 307.66 63.0168C305.789 62.0241 304.262 60.8023 303.078 59.3514V78.9383H296.549V32.3765H303.078V37.0155ZM322.264 48.0116C322.264 45.8353 321.806 43.9644 320.89 42.399C320.012 40.7954 318.828 39.5927 317.339 38.7909C315.888 37.9509 314.323 37.5309 312.643 37.5309C311.001 37.5309 309.435 37.9509 307.946 38.7909C306.495 39.6309 305.312 40.8527 304.395 42.4563C303.517 44.0599 303.078 45.9498 303.078 48.1262C303.078 50.3025 303.517 52.2115 304.395 53.8533C305.312 55.4569 306.495 56.6787 307.946 57.5187C309.435 58.3587 311.001 58.7787 312.643 58.7787C314.323 58.7787 315.888 58.3587 317.339 57.5187C318.828 56.6405 320.012 55.3806 320.89 53.7388C321.806 52.097 322.264 50.1879 322.264 48.0116ZM363.771 32.3765L344.413 78.7664H337.655L344.069 63.4177L331.642 32.3765H338.915L347.792 56.4305L357.013 32.3765H363.771Z" fill="#2C2A2E"/>
</svg>
