<svg width="134" height="28" viewBox="0 0 134 28" fill="none" xmlns="http://www.w3.org/2000/svg">
<g clip-path="url(#clip0_915_34)">
<path d="M53.6004 13.7183V19.1922H55.2407C56.0031 19.1922 56.6456 18.9269 57.18 18.3928C57.7107 17.8622 57.9798 17.2159 57.9798 16.4573C57.9798 15.6988 57.7107 15.0525 57.18 14.5181C56.6456 13.9874 56.0031 13.7183 55.2407 13.7183H53.6004ZM50.3164 10.4339H55.2407C56.9075 10.4339 58.3271 11.0243 59.5003 12.1978C60.6738 13.3748 61.2642 14.7909 61.2642 16.4573C61.2642 18.12 60.6738 19.5399 59.5003 20.7131C58.3271 21.89 56.9075 22.4766 55.2407 22.4766H53.6004V27.9505H50.3164V10.4339ZM63.211 10.4339H66.495V24.6661H70.8744V27.9505H63.211V10.4339ZM76.5459 25.761L75.6158 27.9505H72.0476L80.1781 8.80493L88.301 27.9505H84.7328L83.8023 25.761H76.5459ZM82.4122 22.4766L80.1781 17.2008L77.9361 22.4766H82.4122ZM92.7696 15.0786V27.9505H89.4855V10.4339H92.7696L97.1489 14.8132V10.4339H100.433V27.9505H97.1489V19.4575L92.7696 15.0786ZM116.481 21.2286L119.534 22.4543C119.104 23.5266 118.45 24.5017 117.576 25.3763C115.861 27.091 113.795 27.9505 111.381 27.9505C108.963 27.9505 106.901 27.0948 105.189 25.3834C103.478 23.6725 102.623 21.6096 102.623 19.1922C102.623 16.7786 103.478 14.7123 105.189 13.001C106.901 11.2896 108.963 10.4339 111.381 10.4339C113.795 10.4339 115.861 11.2896 117.576 12.9972C118.45 13.8789 119.104 14.8578 119.534 15.9305L116.481 17.1558C116.212 16.4872 115.801 15.8742 115.255 15.3174C114.183 14.2527 112.89 13.7183 111.381 13.7183C109.868 13.7183 108.579 14.2527 107.51 15.325C106.441 16.3938 105.907 17.6827 105.907 19.1922C105.907 20.7055 106.441 21.9947 107.51 23.0632C108.579 24.132 109.868 24.6661 111.381 24.6661C112.89 24.6661 114.183 24.132 115.255 23.0556C115.801 22.5103 116.212 21.9014 116.481 21.2286ZM124.514 22.2264V27.9505H121.23V10.4339H124.514V15.6353L127.515 10.4339H131.3L127.403 17.2121L133.601 27.9505H129.813L125.512 20.5075L124.514 22.2264Z" fill="#FFC62D"/>
<path d="M3.20818 15.9225V27.9501H-0.0546875V10.5469H3.20818L6.47142 14.8979L9.73429 10.5469H12.9975V27.9501H9.73429V15.9225L6.47142 20.2731L3.20818 15.9225ZM18.6328 25.7746L17.7083 27.9501H14.1631L22.2411 8.92847L30.3115 27.9501H26.7664L25.8419 25.7746H18.6328ZM24.4608 22.5117L22.2411 17.2699L20.0138 22.5117H24.4608ZM36.9269 14.6046L38.9946 10.5469H42.6476L38.7531 18.183L43.7353 27.9501H40.0786L36.9269 21.7619L33.7713 27.9501H30.1188L35.1006 18.183L31.2062 10.5469H34.8591L36.9269 14.6046Z" fill="#242424"/>
<path d="M44.6551 5.43507L45.3997 5.9865C45.0599 6.63243 44.5909 7.13094 43.9979 7.47791C43.4075 7.82524 42.734 7.99986 41.9777 7.99986C40.8654 7.99986 39.9462 7.63211 39.2202 6.89888C38.496 6.16565 38.1328 5.23513 38.1328 4.10657C38.1328 2.97573 38.496 2.04294 39.2224 1.30972C39.9508 0.576488 40.8677 0.20874 41.9755 0.20874C42.6626 0.20874 43.29 0.35841 43.8554 0.65926C44.4208 0.960488 44.8804 1.39022 45.2345 1.94619L44.4597 2.498C44.2277 2.05428 43.8898 1.70506 43.451 1.45447C43.0122 1.20389 42.5201 1.07765 41.9777 1.07765C41.1436 1.07765 40.4519 1.3649 39.905 1.93712C39.3578 2.50934 39.0845 3.23312 39.0845 4.10657C39.0845 4.98228 39.3578 5.70606 39.905 6.27602C40.4519 6.84597 41.1436 7.13094 41.9777 7.13094C42.5617 7.13094 43.0787 6.98619 43.5315 6.69894C43.9843 6.4117 44.3588 5.99104 44.6551 5.43507ZM47.7853 0.374284V5.18676C47.7853 5.95665 47.9301 6.47369 48.2196 6.73787C48.5091 7.00017 49.0768 7.13094 49.9272 7.13094C50.7753 7.13094 51.343 7.00017 51.6303 6.73787C51.9175 6.47369 52.06 5.95665 52.06 5.18676V0.374284H52.9837V5.43507C52.9837 6.34972 52.7471 7.00698 52.2713 7.40458C51.7958 7.80219 51.0119 7.99986 49.9227 7.99986C48.8334 7.99986 48.0495 7.80219 47.5737 7.40458C47.0982 7.00698 46.8613 6.34972 46.8613 5.43507V0.374284H47.7853ZM55.923 3.68364H59.2048C59.6716 3.68364 60.0253 3.58046 60.2646 3.37334C60.5057 3.16887 60.6252 2.86575 60.6252 2.46587C60.6252 2.07734 60.5057 1.77157 60.2646 1.55576C60.0253 1.33731 59.6875 1.22921 59.2509 1.22921H55.923V3.68364ZM54.9993 7.80672V0.374284H59.2645C59.991 0.374284 60.5586 0.558347 60.9721 0.923449C61.3837 1.28893 61.5905 1.79463 61.5905 2.44055C61.5905 2.97838 61.4294 3.43797 61.1078 3.82159C60.7839 4.20559 60.3587 4.44446 59.8299 4.53857L61.6868 7.80672H60.6667L58.8072 4.55255H55.923V7.80672H54.9993ZM62.5671 6.68761L63.1049 5.89013C63.6314 6.2968 64.1783 6.6071 64.746 6.82291C65.3137 7.03683 65.8768 7.14493 66.4328 7.14493C67.1199 7.14493 67.6785 7.00017 68.106 6.70802C68.5357 6.41624 68.7493 6.04168 68.7493 5.58436C68.7493 5.22115 68.5954 4.92257 68.2874 4.68824C67.9794 4.45353 67.5542 4.31331 67.0118 4.26758C66.881 4.25359 66.6924 4.23998 66.4468 4.22827C65.2241 4.14096 64.3918 3.99847 63.9462 3.79627C63.6015 3.62846 63.337 3.41491 63.1578 3.15299C62.9787 2.88843 62.8891 2.59438 62.8891 2.26594C62.8891 1.66839 63.1556 1.1763 63.6911 0.788142C64.2244 0.401874 64.9183 0.20874 65.771 0.20874C66.3916 0.20874 67.0027 0.310032 67.6071 0.514504C68.2114 0.718976 68.7863 1.02247 69.3287 1.42235L68.7908 2.1945C68.3312 1.82449 67.8509 1.54632 67.3452 1.35809C66.8395 1.17176 66.3202 1.07765 65.7869 1.07765C65.2264 1.07765 64.7641 1.18802 64.399 1.40609C64.0358 1.62455 63.8544 1.89819 63.8544 2.22663C63.8544 2.35551 63.8842 2.47494 63.9417 2.58304C63.9991 2.69076 64.091 2.79432 64.2104 2.88843C64.5162 3.11595 65.1757 3.26335 66.1916 3.32534C66.658 3.35293 67.0213 3.38052 67.2764 3.41265C68.03 3.49769 68.6276 3.73882 69.069 4.13869C69.5078 4.53857 69.7285 5.02802 69.7285 5.61195C69.7285 6.30587 69.4273 6.87809 68.823 7.32635C68.2186 7.7746 67.4257 7.99986 66.4468 7.99986C65.7067 7.99986 65.017 7.89176 64.3828 7.67784C63.7463 7.46203 63.1419 7.13321 62.5671 6.68761ZM71.5234 7.80672V0.333087H72.4611V7.80672H71.5234ZM74.6948 7.80672V0.374284H75.6189V6.95179H80.4726V7.80672H74.6948ZM81.5894 7.80672V0.374284H82.5135V6.95179H87.3672V7.80672H81.5894ZM91.4971 7.13094C92.3316 7.13094 93.0233 6.84597 93.5724 6.27602C94.1193 5.70606 94.393 4.98228 94.393 4.10657C94.393 3.22858 94.1193 2.50254 93.5747 1.93258C93.0301 1.36263 92.3361 1.07765 91.4971 1.07765C90.663 1.07765 89.9713 1.3649 89.4221 1.93712C88.8749 2.50934 88.6016 3.23312 88.6016 4.10657C88.6016 4.98228 88.8749 5.70606 89.4221 6.27602C89.9713 6.84597 90.663 7.13094 91.4971 7.13094ZM91.4948 7.99986C90.3802 7.99986 89.4611 7.63211 88.7373 6.89888C88.0131 6.16565 87.6499 5.23513 87.6499 4.10657C87.6499 2.97573 88.0131 2.04294 88.7418 1.30972C89.4679 0.576488 90.3848 0.20874 91.4948 0.20874C92.6071 0.20874 93.529 0.576488 94.2618 1.31425C94.9928 2.04975 95.3583 2.98065 95.3583 4.10657C95.3583 5.23513 94.9928 6.16565 94.2645 6.89888C93.5358 7.63211 92.6121 7.99986 91.4948 7.99986Z" fill="#242424"/>
</g>
<defs>
<clipPath id="clip0_915_34">
<rect width="133.654" height="27.7402" fill="white"/>
</clipPath>
</defs>
</svg>
